<svg xmlns="http://www.w3.org/2000/svg" xmlns:xlink="http://www.w3.org/1999/xlink" width="500" zoomAndPan="magnify" viewBox="0 0 375 374.999991" height="500" preserveAspectRatio="xMidYMid meet" version="1.0"><defs><g/><clipPath id="cfd36a01a6"><path d="M 15.292969 15.292969 L 359.707031 15.292969 L 359.707031 359.707031 L 15.292969 359.707031 Z M 15.292969 15.292969 " clip-rule="nonzero"/></clipPath><clipPath id="40743e82e3"><path d="M 34.792969 15.292969 L 340.207031 15.292969 C 350.976562 15.292969 359.707031 24.023438 359.707031 34.792969 L 359.707031 340.207031 C 359.707031 350.976562 350.976562 359.707031 340.207031 359.707031 L 34.792969 359.707031 C 24.023438 359.707031 15.292969 350.976562 15.292969 340.207031 L 15.292969 34.792969 C 15.292969 24.023438 24.023438 15.292969 34.792969 15.292969 Z M 34.792969 15.292969 " clip-rule="nonzero"/></clipPath><clipPath id="fa3614ea0f"><path d="M 49.546875 84.238281 L 113 84.238281 L 113 289.382812 L 49.546875 289.382812 Z M 49.546875 84.238281 " clip-rule="nonzero"/></clipPath><clipPath id="e60a752335"><path d="M 263 84.238281 L 326.03125 84.238281 L 326.03125 289.382812 L 263 289.382812 Z M 263 84.238281 " clip-rule="nonzero"/></clipPath></defs><g clip-path="url(#cfd36a01a6)"><g clip-path="url(#40743e82e3)"><path fill="#230b98" d="M 15.292969 15.292969 L 359.707031 15.292969 L 359.707031 359.707031 L 15.292969 359.707031 Z M 15.292969 15.292969 " fill-opacity="1" fill-rule="nonzero"/></g></g><g clip-path="url(#fa3614ea0f)"><path fill="#efefef" d="M 106.9375 107.183594 L 112.671875 107.183594 L 112.671875 84.238281 L 106.9375 84.238281 C 87.925781 84.238281 72.515625 99.648438 72.515625 118.65625 L 72.515625 158.8125 C 72.515625 162.425781 70.816406 165.824219 67.925781 167.992188 L 54.160156 178.316406 C 51.402344 180.382812 49.722656 183.578125 49.578125 187.019531 C 49.4375 190.460938 50.847656 193.785156 53.421875 196.074219 L 68.664062 209.617188 C 71.113281 211.796875 72.515625 214.917969 72.515625 218.195312 L 72.515625 256.335938 C 72.515625 275.347656 87.925781 290.757812 106.9375 290.757812 L 112.671875 290.757812 L 112.671875 267.8125 L 106.9375 267.8125 C 100.601562 267.8125 95.464844 262.675781 95.464844 256.335938 L 95.464844 218.195312 C 95.464844 208.363281 91.257812 199 83.90625 192.46875 L 79.160156 188.25 L 81.695312 186.351562 C 90.363281 179.847656 95.464844 169.648438 95.464844 158.8125 L 95.464844 118.65625 C 95.464844 112.320312 100.601562 107.183594 106.9375 107.183594 Z M 106.9375 107.183594 " fill-opacity="1" fill-rule="evenodd"/></g><g clip-path="url(#e60a752335)"><path fill="#efefef" d="M 269.15625 107.183594 L 263.417969 107.183594 L 263.417969 84.238281 L 269.15625 84.238281 C 288.167969 84.238281 303.578125 99.648438 303.578125 118.65625 L 303.578125 158.8125 C 303.578125 162.425781 305.277344 165.824219 308.164062 167.992188 L 321.933594 178.316406 C 324.6875 180.382812 326.371094 183.578125 326.511719 187.019531 C 326.65625 190.460938 325.246094 193.785156 322.671875 196.074219 L 307.429688 209.617188 C 304.980469 211.796875 303.578125 214.917969 303.578125 218.195312 L 303.578125 256.335938 C 303.578125 275.347656 288.167969 290.757812 269.15625 290.757812 L 263.417969 290.757812 L 263.417969 267.8125 L 269.15625 267.8125 C 275.492188 267.8125 280.628906 262.675781 280.628906 256.335938 L 280.628906 218.195312 C 280.628906 208.363281 284.835938 199 292.1875 192.46875 L 296.929688 188.25 L 294.398438 186.351562 C 285.730469 179.847656 280.628906 169.648438 280.628906 158.8125 L 280.628906 118.65625 C 280.628906 112.320312 275.492188 107.183594 269.15625 107.183594 Z M 269.15625 107.183594 " fill-opacity="1" fill-rule="evenodd"/></g><g fill="#ffffff" fill-opacity="1"><g transform="translate(116.598426, 256.924277)"><g><path d="M 133.34375 1.03125 L 111.1875 1.03125 L 43.6875 -101.953125 C 39.039062 -109.203125 36.171875 -113.785156 35.078125 -115.703125 C 35.898438 -106.671875 36.3125 -102.085938 36.3125 -101.953125 L 36.3125 0 L 13.546875 0 L 13.546875 -137.4375 C 13.546875 -137.582031 13.304688 -138.609375 12.828125 -140.515625 C 12.347656 -142.429688 11.867188 -144.414062 11.390625 -146.46875 C 10.910156 -148.519531 10.671875 -149.679688 10.671875 -149.953125 L 44.3125 -149.953125 L 103.390625 -60.109375 C 105.441406 -57.097656 108.242188 -52.582031 111.796875 -46.5625 C 110.984375 -56.820312 110.578125 -62.085938 110.578125 -62.359375 L 110.578125 -149.953125 L 133.34375 -149.953125 Z M 133.34375 1.03125 "/></g></g></g></svg>